<?xml version="1.0" standalone="no"?><!DOCTYPE svg PUBLIC "-//W3C//DTD SVG 1.1//EN" "http://www.w3.org/Graphics/SVG/1.1/DTD/svg11.dtd"><svg t="1766049386956" class="icon" viewBox="0 0 1024 1024" version="1.1" xmlns="http://www.w3.org/2000/svg" p-id="12328" xmlns:xlink="http://www.w3.org/1999/xlink" width="200" height="200"><path d="M719.2576 373.0432H290.0992V141.0048c0-6.7584 5.632-12.288 12.5952-12.288h404.0704c6.9632 0 12.5952 5.5296 12.5952 12.288v232.0384z m0 0" fill="#FFF7D7" p-id="12329"></path><path d="M290.0992 128.6144h102.7072v221.184H290.0992v-221.184z m163.2256 0H556.032v221.184H453.3248v-221.184z m163.2256 0h102.7072v221.184H616.5504v-221.184z m0 0" fill="#F94F46" p-id="12330"></path><path d="M186.6752 564.3264c0 171.8272 142.1312 311.1936 317.44 311.1936s317.44-139.3664 317.44-311.1936c0-171.9296-142.1312-311.1936-317.44-311.1936s-317.44 139.3664-317.44 311.1936z m0 0" fill="#E8A087" p-id="12331"></path><path d="M513.4336 455.3728h25.6v218.2144h-33.9968v-178.176c-13.4144 12.5952-30.6176 21.7088-51.0976 27.5456v-32.9728c9.9328-2.4576 20.2752-6.7584 31.4368-12.8 11.264-6.8608 20.5824-13.9264 28.0576-21.8112z m-198.9632-67.8912c-3.3792 0-6.656-1.3312-9.216-3.8912-4.8128-5.0176-4.608-12.9024 0.512-17.6128 5.0176-4.608 10.1376-9.0112 15.36-13.2096 2.56-1.9456 5.12-3.9936 7.68-5.9392 5.632-4.1984 13.6192-3.072 17.8176 2.4576 4.3008 5.5296 3.1744 13.312-2.4576 17.408-2.3552 1.7408-4.7104 3.3792-6.9632 5.3248-4.8128 3.8912-9.5232 7.7824-14.0288 12.0832-2.4576 2.3552-5.5296 3.3792-8.704 3.3792z m457.1136 158.5152c-6.2464 0-11.6736-4.5056-12.5952-10.752-2.56-18.7392-7.3728-37.1712-14.2336-54.8864-22.8352-59.8016-67.584-108.7488-125.5424-137.6256-35.9424-17.92-74.6496-27.2384-114.5856-27.7504-39.0144-0.512-78.2336 7.8848-113.7664 24.1664-5.0176 2.3552-9.9328 4.9152-14.9504 7.4752-6.144 3.2768-13.824 1.1264-17.3056-4.9152-3.3792-5.9392-1.1264-13.6192 5.0176-16.896 5.3248-2.8672 10.9568-5.7344 16.384-8.192 38.8096-17.8176 81.92-27.0336 124.8256-26.5216 43.9296 0.512 86.3232 10.752 125.8496 30.4128 63.8976 31.8464 112.9472 85.504 138.0352 151.1424 7.3728 19.3536 12.6976 39.6288 15.5648 60.1088 0.9216 6.8608-3.9936 13.1072-10.9568 14.0288-0.512 0.2048-1.1264 0.2048-1.7408 0.2048z m0 0" fill="#FFFFFF" p-id="12332"></path><path d="M281.9072 564.3264c0 77.824 42.2912 149.7088 111.104 188.7232 68.7104 38.912 153.3952 38.912 222.1056 0s111.104-110.8992 111.104-188.7232c0-120.32-99.4304-217.8048-222.1056-217.8048-122.5728 0-222.208 97.4848-222.208 217.8048z m0 0" fill="#C47857" p-id="12333"></path><path d="M439.0912 622.4896c13.7216 10.24 29.7984 15.4624 48.128 15.4624 11.5712 0 20.8896-2.56 27.648-7.68 6.8608-5.12 10.24-12.4928 10.24-21.9136 0-9.728-4.096-17.2032-12.1856-22.3232s-19.456-7.68-34.0992-7.68h-18.3296v-33.1776h16.896c27.648 0 41.472-9.3184 41.472-27.9552 0-17.5104-10.5472-26.3168-31.8464-26.3168-13.824 0-27.2384 4.5056-40.3456 13.5168v-35.5328c14.2336-7.3728 30.9248-11.0592 50.176-11.0592 19.5584 0 35.328 4.5056 47.5136 13.5168 12.1856 9.0112 18.2272 21.504 18.2272 37.4784 0 26.9312-13.7216 43.9296-40.96 50.7904v0.6144c14.336 1.6384 25.9072 6.8608 34.5088 15.7696s12.9024 19.7632 12.9024 32.5632c0 19.5584-7.168 34.9184-21.504 45.8752-14.336 10.9568-33.3824 16.4864-57.2416 16.4864-21.1968 0-38.2976-3.4816-51.2-10.5472v-37.888z" fill="#FFFFFF" p-id="12334"></path></svg>