<?xml version="1.0" standalone="no"?><!DOCTYPE svg PUBLIC "-//W3C//DTD SVG 1.1//EN" "http://www.w3.org/Graphics/SVG/1.1/DTD/svg11.dtd"><svg t="1766049043826" class="icon" viewBox="0 0 1024 1024" version="1.1" xmlns="http://www.w3.org/2000/svg" p-id="7169" xmlns:xlink="http://www.w3.org/1999/xlink" width="200" height="200"><path d="M800.9 335H224V16.9C224 7.6 231.6 0 240.9 0H784c9.3 0 16.9 7.6 16.9 16.9V335z" fill="#FFF7D7" p-id="7170"></path><path d="M224 0h138.1v303.2H224V0z m219.4 0h138.1v303.2H443.4V0z m219.4 0h138.1v303.2H662.8V0z" fill="#F94F46" p-id="7171"></path><path d="M85 597.3C85 832.9 276 1024 511.7 1024s426.7-191 426.7-426.7-191-426.7-426.7-426.7S85 361.7 85 597.3z" fill="#FEE701" p-id="7172"></path><path d="M213 597.3C213 704 269.9 802.6 362.4 856c92.4 53.3 206.2 53.3 298.6 0 92.4-53.3 149.4-152 149.4-258.7 0-165-133.7-298.6-298.6-298.6S213 432.3 213 597.3z" fill="#F5B319" p-id="7173"></path><path d="M524.2 447.9h34.4V747h-45.7V502.8c-18 17.2-41.1 29.7-68.7 37.7v-45.2c13.4-3.4 27.2-9.2 42.3-17.6 15.1-9.3 27.7-18.9 37.7-29.8zM256.8 354.9c-4.5 0-9-1.8-12.4-5.4-6.5-6.9-6.2-17.7 0.7-24.1 6.7-6.3 13.6-12.3 20.7-18.1 3.4-2.7 6.9-5.5 10.3-8.1 7.6-5.8 18.3-4.2 23.9 3.3 5.8 7.6 4.2 18.3-3.3 23.8-3.2 2.4-6.3 4.7-9.4 7.3-6.4 5.3-12.8 10.7-18.9 16.5-3.2 3.4-7.4 4.8-11.6 4.8z m614.5 217.3c-8.4 0-15.7-6.2-16.9-14.7-3.5-25.7-9.9-50.9-19.1-75.2-30.7-82-90.8-149.1-168.8-188.7-48.3-24.5-100.3-37.4-154-38.1-52.5-0.7-105.2 10.8-152.9 33.1-6.8 3.2-13.4 6.7-20.1 10.2-8.2 4.5-18.6 1.5-23.2-6.8-4.5-8.2-1.5-18.6 6.8-23.2 7.2-4 14.7-7.8 22-11.2 52.2-24.4 110.1-37 167.8-36.4 59.1 0.7 116 14.7 169.2 41.7 85.9 43.7 151.8 117.2 185.5 207.2 9.9 26.6 17 54.3 20.9 82.4 1.2 9.4-5.3 18-14.7 19.2-0.9 0.4-1.7 0.5-2.5 0.5z" fill="#FFFFFF" p-id="7174"></path></svg>